<svg width="251" height="56" viewBox="0 0 251 56" fill="none" xmlns="http://www.w3.org/2000/svg">
<circle cx="28" cy="28" r="28" transform="matrix(1 0 0 -1 0 56)" fill="#FFE4CC"/>
<path d="M28.924 35.144C28.924 33.2027 29.344 31.476 30.184 29.964C31.024 28.4333 32.1907 27.248 33.684 26.408C35.196 25.5493 36.904 25.12 38.808 25.12C41.1413 25.12 43.1387 25.736 44.8 26.968C46.4613 28.2 47.572 29.88 48.132 32.008H42.868C42.476 31.1867 41.916 30.5613 41.188 30.132C40.4787 29.7027 39.6667 29.488 38.752 29.488C37.2773 29.488 36.0827 30.0013 35.168 31.028C34.2533 32.0547 33.796 33.4267 33.796 35.144C33.796 36.8613 34.2533 38.2333 35.168 39.26C36.0827 40.2867 37.2773 40.8 38.752 40.8C39.6667 40.8 40.4787 40.5853 41.188 40.156C41.916 39.7267 42.476 39.1013 42.868 38.28H48.132C47.572 40.408 46.4613 42.088 44.8 43.32C43.1387 44.5333 41.1413 45.14 38.808 45.14C36.904 45.14 35.196 44.72 33.684 43.88C32.1907 43.0213 31.024 41.836 30.184 40.324C29.344 38.812 28.924 37.0853 28.924 35.144ZM55.8521 31.98C56.4121 31.1213 57.1121 30.4493 57.9521 29.964C58.7921 29.46 59.7255 29.208 60.7521 29.208V34.276H59.4361C58.2415 34.276 57.3455 34.5373 56.7481 35.06C56.1508 35.564 55.8521 36.46 55.8521 37.748V45H51.0641V29.376H55.8521V31.98ZM77.7687 36.936C77.7687 37.384 77.7407 37.8507 77.6847 38.336H66.8487C66.9234 39.3067 67.2314 40.0533 67.7727 40.576C68.3327 41.08 69.014 41.332 69.8167 41.332C71.0114 41.332 71.842 40.828 72.3087 39.82H77.4047C77.1434 40.8467 76.6674 41.7707 75.9767 42.592C75.3047 43.4133 74.4554 44.0573 73.4287 44.524C72.402 44.9907 71.254 45.224 69.9847 45.224C68.454 45.224 67.0914 44.8973 65.8967 44.244C64.702 43.5907 63.7687 42.6573 63.0967 41.444C62.4247 40.2307 62.0887 38.812 62.0887 37.188C62.0887 35.564 62.4154 34.1453 63.0687 32.932C63.7407 31.7187 64.674 30.7853 65.8687 30.132C67.0634 29.4787 68.4354 29.152 69.9847 29.152C71.4967 29.152 72.8407 29.4693 74.0167 30.104C75.1927 30.7387 76.1074 31.644 76.7607 32.82C77.4327 33.996 77.7687 35.368 77.7687 36.936ZM72.8687 35.676C72.8687 34.8547 72.5887 34.2013 72.0287 33.716C71.4687 33.2307 70.7687 32.988 69.9287 32.988C69.126 32.988 68.4447 33.2213 67.8847 33.688C67.3434 34.1547 67.0074 34.8173 66.8767 35.676H72.8687ZM79.3426 37.16C79.3426 35.5547 79.6413 34.1453 80.2386 32.932C80.8546 31.7187 81.6853 30.7853 82.7306 30.132C83.7759 29.4787 84.9426 29.152 86.2306 29.152C87.3319 29.152 88.2933 29.376 89.1146 29.824C89.9546 30.272 90.5986 30.86 91.0466 31.588V29.376H95.8346V45H91.0466V42.788C90.5799 43.516 89.9266 44.104 89.0866 44.552C88.2653 45 87.3039 45.224 86.2026 45.224C84.9333 45.224 83.7759 44.8973 82.7306 44.244C81.6853 43.572 80.8546 42.6293 80.2386 41.416C79.6413 40.184 79.3426 38.7653 79.3426 37.16ZM91.0466 37.188C91.0466 35.9933 90.7106 35.0507 90.0386 34.36C89.3853 33.6693 88.5826 33.324 87.6306 33.324C86.6786 33.324 85.8666 33.6693 85.1946 34.36C84.5413 35.032 84.2146 35.9653 84.2146 37.16C84.2146 38.3547 84.5413 39.3067 85.1946 40.016C85.8666 40.7067 86.6786 41.052 87.6306 41.052C88.5826 41.052 89.3853 40.7067 90.0386 40.016C90.7106 39.3253 91.0466 38.3827 91.0466 37.188ZM108.007 40.94V45H105.571C103.835 45 102.481 44.58 101.511 43.74C100.54 42.8813 100.055 41.4907 100.055 39.568V33.352H98.1505V29.376H100.055V25.568H104.843V29.376H107.979V33.352H104.843V39.624C104.843 40.0907 104.955 40.4267 105.179 40.632C105.403 40.8373 105.776 40.94 106.299 40.94H108.007ZM125.401 36.936C125.401 37.384 125.374 37.8507 125.318 38.336H114.482C114.556 39.3067 114.864 40.0533 115.406 40.576C115.966 41.08 116.647 41.332 117.45 41.332C118.644 41.332 119.475 40.828 119.942 39.82H125.038C124.776 40.8467 124.3 41.7707 123.61 42.592C122.938 43.4133 122.088 44.0573 121.062 44.524C120.035 44.9907 118.887 45.224 117.618 45.224C116.087 45.224 114.724 44.8973 113.53 44.244C112.335 43.5907 111.402 42.6573 110.73 41.444C110.058 40.2307 109.722 38.812 109.722 37.188C109.722 35.564 110.048 34.1453 110.702 32.932C111.374 31.7187 112.307 30.7853 113.502 30.132C114.696 29.4787 116.068 29.152 117.618 29.152C119.13 29.152 120.474 29.4693 121.65 30.104C122.826 30.7387 123.74 31.644 124.394 32.82C125.066 33.996 125.401 35.368 125.401 36.936ZM120.502 35.676C120.502 34.8547 120.222 34.2013 119.662 33.716C119.102 33.2307 118.402 32.988 117.562 32.988C116.759 32.988 116.078 33.2213 115.518 33.688C114.976 34.1547 114.64 34.8173 114.51 35.676H120.502ZM148.841 31.672C148.841 32.8107 148.58 33.856 148.057 34.808C147.534 35.7413 146.732 36.4973 145.649 37.076C144.566 37.6547 143.222 37.944 141.617 37.944H138.649V45H133.861V25.344H141.617C143.185 25.344 144.51 25.6147 145.593 26.156C146.676 26.6973 147.488 27.444 148.029 28.396C148.57 29.348 148.841 30.44 148.841 31.672ZM141.253 34.136C142.168 34.136 142.849 33.9213 143.297 33.492C143.745 33.0627 143.969 32.456 143.969 31.672C143.969 30.888 143.745 30.2813 143.297 29.852C142.849 29.4227 142.168 29.208 141.253 29.208H138.649V34.136H141.253ZM156.122 31.98C156.682 31.1213 157.382 30.4493 158.222 29.964C159.062 29.46 159.995 29.208 161.022 29.208V34.276H159.706C158.511 34.276 157.615 34.5373 157.018 35.06C156.42 35.564 156.122 36.46 156.122 37.748V45H151.334V29.376H156.122V31.98ZM170.422 45.224C168.892 45.224 167.51 44.8973 166.278 44.244C165.065 43.5907 164.104 42.6573 163.394 41.444C162.704 40.2307 162.358 38.812 162.358 37.188C162.358 35.5827 162.713 34.1733 163.422 32.96C164.132 31.728 165.102 30.7853 166.334 30.132C167.566 29.4787 168.948 29.152 170.478 29.152C172.009 29.152 173.39 29.4787 174.622 30.132C175.854 30.7853 176.825 31.728 177.534 32.96C178.244 34.1733 178.598 35.5827 178.598 37.188C178.598 38.7933 178.234 40.212 177.506 41.444C176.797 42.6573 175.817 43.5907 174.566 44.244C173.334 44.8973 171.953 45.224 170.422 45.224ZM170.422 41.08C171.337 41.08 172.112 40.744 172.746 40.072C173.4 39.4 173.726 38.4387 173.726 37.188C173.726 35.9373 173.409 34.976 172.774 34.304C172.158 33.632 171.393 33.296 170.478 33.296C169.545 33.296 168.77 33.632 168.154 34.304C167.538 34.9573 167.23 35.9187 167.23 37.188C167.23 38.4387 167.529 39.4 168.126 40.072C168.742 40.744 169.508 41.08 170.422 41.08ZM183.518 27.752C182.678 27.752 181.988 27.5093 181.446 27.024C180.924 26.52 180.662 25.904 180.662 25.176C180.662 24.4293 180.924 23.8133 181.446 23.328C181.988 22.824 182.678 22.572 183.518 22.572C184.34 22.572 185.012 22.824 185.534 23.328C186.076 23.8133 186.346 24.4293 186.346 25.176C186.346 25.904 186.076 26.52 185.534 27.024C185.012 27.5093 184.34 27.752 183.518 27.752ZM185.926 47.016C185.926 48.9387 185.441 50.32 184.47 51.16C183.5 52.0187 182.146 52.448 180.41 52.448H178.534V48.388H179.682C180.205 48.388 180.578 48.2853 180.802 48.08C181.026 47.8747 181.138 47.5387 181.138 47.072V29.376H185.926V47.016ZM204.097 36.936C204.097 37.384 204.069 37.8507 204.013 38.336H193.177C193.251 39.3067 193.559 40.0533 194.101 40.576C194.661 41.08 195.342 41.332 196.145 41.332C197.339 41.332 198.17 40.828 198.637 39.82H203.733C203.471 40.8467 202.995 41.7707 202.305 42.592C201.633 43.4133 200.783 44.0573 199.757 44.524C198.73 44.9907 197.582 45.224 196.313 45.224C194.782 45.224 193.419 44.8973 192.225 44.244C191.03 43.5907 190.097 42.6573 189.425 41.444C188.753 40.2307 188.417 38.812 188.417 37.188C188.417 35.564 188.743 34.1453 189.397 32.932C190.069 31.7187 191.002 30.7853 192.197 30.132C193.391 29.4787 194.763 29.152 196.313 29.152C197.825 29.152 199.169 29.4693 200.345 30.104C201.521 30.7387 202.435 31.644 203.089 32.82C203.761 33.996 204.097 35.368 204.097 36.936ZM199.197 35.676C199.197 34.8547 198.917 34.2013 198.357 33.716C197.797 33.2307 197.097 32.988 196.257 32.988C195.454 32.988 194.773 33.2213 194.213 33.688C193.671 34.1547 193.335 34.8173 193.205 35.676H199.197ZM205.671 37.188C205.671 35.564 205.997 34.1453 206.651 32.932C207.323 31.7187 208.247 30.7853 209.423 30.132C210.617 29.4787 211.98 29.152 213.511 29.152C215.471 29.152 217.104 29.6653 218.411 30.692C219.736 31.7187 220.604 33.1653 221.015 35.032H215.919C215.489 33.8373 214.659 33.24 213.427 33.24C212.549 33.24 211.849 33.5853 211.327 34.276C210.804 34.948 210.543 35.9187 210.543 37.188C210.543 38.4573 210.804 39.4373 211.327 40.128C211.849 40.8 212.549 41.136 213.427 41.136C214.659 41.136 215.489 40.5387 215.919 39.344H221.015C220.604 41.1733 219.736 42.6107 218.411 43.656C217.085 44.7013 215.452 45.224 213.511 45.224C211.98 45.224 210.617 44.8973 209.423 44.244C208.247 43.5907 207.323 42.6573 206.651 41.444C205.997 40.2307 205.671 38.812 205.671 37.188ZM232.284 40.94V45H229.848C228.112 45 226.759 44.58 225.788 43.74C224.817 42.8813 224.332 41.4907 224.332 39.568V33.352H222.428V29.376H224.332V25.568H229.12V29.376H232.256V33.352H229.12V39.624C229.12 40.0907 229.232 40.4267 229.456 40.632C229.68 40.8373 230.053 40.94 230.576 40.94H232.284ZM247.184 24.644L246.624 38.056H242.564L242.004 24.644H247.184ZM244.664 45.224C243.824 45.224 243.134 44.9813 242.592 44.496C242.07 43.992 241.808 43.376 241.808 42.648C241.808 41.9013 242.07 41.276 242.592 40.772C243.134 40.268 243.824 40.016 244.664 40.016C245.486 40.016 246.158 40.268 246.68 40.772C247.222 41.276 247.492 41.9013 247.492 42.648C247.492 43.376 247.222 43.992 246.68 44.496C246.158 44.9813 245.486 45.224 244.664 45.224Z" fill="#FF9029"/>
</svg>
