<svg width="209" height="176" viewBox="0 0 209 176" fill="none" xmlns="http://www.w3.org/2000/svg">
<rect y="27" width="194" height="117" rx="20" fill="#FFE9D9"/>
<rect width="125.229" height="74.7335" rx="37.3667" transform="matrix(0.19041 0.981705 0.981705 -0.19041 10 52.2305)" fill="#FFCABF"/>
<circle cx="15.1487" cy="15.1487" r="15.1487" transform="matrix(-1 0 0 1 89.0322 54.832)" fill="white"/>
<circle cx="15.1487" cy="15.1487" r="15.1487" transform="matrix(-1 0 0 1 58.7354 59.5449)" fill="white"/>
<circle cx="10.0991" cy="10.0991" r="10.0991" transform="matrix(-1 0 0 1 89.0322 59.5449)" fill="black"/>
<circle cx="10.0991" cy="10.0991" r="10.0991" transform="matrix(-1 0 0 1 58.7354 64.2578)" fill="black"/>
<circle cx="5.04956" cy="5.04956" r="5.04956" transform="matrix(-1 0 0 1 87.0127 61.5645)" fill="white"/>
<circle cx="5.04956" cy="5.04956" r="5.04956" transform="matrix(-1 0 0 1 56.7158 66.2773)" fill="white"/>
<rect width="74.0602" height="74.7335" rx="37.0301" transform="matrix(4.37114e-08 1 1 -4.37114e-08 106 96.9766)" fill="#ACD7FF"/>
<circle cx="15.1487" cy="15.1487" r="15.1487" transform="matrix(-1 0 0 1 160.535 103.709)" fill="white"/>
<circle cx="10.0991" cy="10.0991" r="10.0991" transform="matrix(-1 0 0 1 155.148 108.422)" fill="black"/>
<circle cx="5.04956" cy="5.04956" r="5.04956" transform="matrix(-1 0 0 1 153.129 110.442)" fill="white"/>
<g filter="url(#filter0_d_1007_67)">
<path d="M147.069 144.47L133.801 142.086L132.157 151.239C131.498 154.903 133.935 158.406 137.599 159.065C141.263 159.723 144.767 157.286 145.425 153.622L147.069 144.47Z" fill="#FFDED0"/>
</g>
<path d="M140.337 144.442C140 145.34 139.26 148.078 138.99 151.848" stroke="#FF9C72" stroke-width="2" stroke-linecap="round" stroke-linejoin="round"/>
<path d="M151.782 141.864C148.157 143.798 139.004 146.012 131.397 139.393" stroke="black" stroke-width="2" stroke-linecap="round" stroke-linejoin="round"/>
<rect x="113.5" y="0.5" width="95" height="36" rx="7.5" fill="white" stroke="#BDBDBD"/>
<path d="M142.588 12.49V25H140.536V19.528H134.65V25H132.598V12.49H134.65V17.854H140.536V12.49H142.588ZM154.379 19.798C154.379 20.17 154.355 20.506 154.307 20.806H146.729C146.789 21.598 147.083 22.234 147.611 22.714C148.139 23.194 148.787 23.434 149.555 23.434C150.659 23.434 151.439 22.972 151.895 22.048H154.109C153.809 22.96 153.263 23.71 152.471 24.298C151.691 24.874 150.719 25.162 149.555 25.162C148.607 25.162 147.755 24.952 146.999 24.532C146.255 24.1 145.667 23.5 145.235 22.732C144.815 21.952 144.605 21.052 144.605 20.032C144.605 19.012 144.809 18.118 145.217 17.35C145.637 16.57 146.219 15.97 146.963 15.55C147.719 15.13 148.583 14.92 149.555 14.92C150.491 14.92 151.325 15.124 152.057 15.532C152.789 15.94 153.359 16.516 153.767 17.26C154.175 17.992 154.379 18.838 154.379 19.798ZM152.237 19.15C152.225 18.394 151.955 17.788 151.427 17.332C150.899 16.876 150.245 16.648 149.465 16.648C148.757 16.648 148.151 16.876 147.647 17.332C147.143 17.776 146.843 18.382 146.747 19.15H152.237ZM158.451 11.68V25H156.399V11.68H158.451ZM163.197 11.68V25H161.145V11.68H163.197ZM170.193 25.162C169.257 25.162 168.411 24.952 167.655 24.532C166.899 24.1 166.305 23.5 165.873 22.732C165.441 21.952 165.225 21.052 165.225 20.032C165.225 19.024 165.447 18.13 165.891 17.35C166.335 16.57 166.941 15.97 167.709 15.55C168.477 15.13 169.335 14.92 170.283 14.92C171.231 14.92 172.089 15.13 172.857 15.55C173.625 15.97 174.231 16.57 174.675 17.35C175.119 18.13 175.341 19.024 175.341 20.032C175.341 21.04 175.113 21.934 174.657 22.714C174.201 23.494 173.577 24.1 172.785 24.532C172.005 24.952 171.141 25.162 170.193 25.162ZM170.193 23.38C170.721 23.38 171.213 23.254 171.669 23.002C172.137 22.75 172.515 22.372 172.803 21.868C173.091 21.364 173.235 20.752 173.235 20.032C173.235 19.312 173.097 18.706 172.821 18.214C172.545 17.71 172.179 17.332 171.723 17.08C171.267 16.828 170.775 16.702 170.247 16.702C169.719 16.702 169.227 16.828 168.771 17.08C168.327 17.332 167.973 17.71 167.709 18.214C167.445 18.706 167.313 19.312 167.313 20.032C167.313 21.1 167.583 21.928 168.123 22.516C168.675 23.092 169.365 23.38 170.193 23.38ZM176.668 20.716C176.848 19.708 177.184 18.964 177.676 18.484C178.168 17.992 178.786 17.746 179.53 17.746C179.866 17.746 180.16 17.8 180.412 17.908C180.676 18.016 180.976 18.178 181.312 18.394C181.612 18.574 181.846 18.706 182.014 18.79C182.194 18.874 182.392 18.916 182.608 18.916C182.908 18.916 183.172 18.82 183.4 18.628C183.64 18.424 183.784 18.142 183.832 17.782H185.326C185.146 18.79 184.804 19.54 184.3 20.032C183.808 20.512 183.19 20.752 182.446 20.752C182.11 20.752 181.816 20.698 181.564 20.59C181.312 20.482 181.018 20.32 180.682 20.104C180.418 19.924 180.19 19.792 179.998 19.708C179.806 19.624 179.602 19.582 179.386 19.582C179.074 19.582 178.798 19.684 178.558 19.888C178.33 20.08 178.192 20.356 178.144 20.716H176.668ZM189.893 12.49L189.659 21.22H187.949L187.715 12.49H189.893ZM188.867 25.126C188.495 25.126 188.183 25 187.931 24.748C187.679 24.496 187.553 24.184 187.553 23.812C187.553 23.44 187.679 23.128 187.931 22.876C188.183 22.624 188.495 22.498 188.867 22.498C189.227 22.498 189.533 22.624 189.785 22.876C190.037 23.128 190.163 23.44 190.163 23.812C190.163 24.184 190.037 24.496 189.785 24.748C189.533 25 189.227 25.126 188.867 25.126Z" fill="black"/>
<defs>
<filter id="filter0_d_1007_67" x="127.05" y="141.086" width="25.0195" height="27.0859" filterUnits="userSpaceOnUse" color-interpolation-filters="sRGB">
<feFlood flood-opacity="0" result="BackgroundImageFix"/>
<feColorMatrix in="SourceAlpha" type="matrix" values="0 0 0 0 0 0 0 0 0 0 0 0 0 0 0 0 0 0 127 0" result="hardAlpha"/>
<feOffset dy="4"/>
<feGaussianBlur stdDeviation="2.5"/>
<feComposite in2="hardAlpha" operator="out"/>
<feColorMatrix type="matrix" values="0 0 0 0 0 0 0 0 0 0 0 0 0 0 0 0 0 0 0.1 0"/>
<feBlend mode="normal" in2="BackgroundImageFix" result="effect1_dropShadow_1007_67"/>
<feBlend mode="normal" in="SourceGraphic" in2="effect1_dropShadow_1007_67" result="shape"/>
</filter>
</defs>
</svg>
