<svg width="120" height="34" viewBox="0 0 120 34" fill="none" xmlns="http://www.w3.org/2000/svg">
<path d="M21.88 13.96C21.88 15.5867 21.5067 17.08 20.76 18.44C20.0133 19.7733 18.8667 20.8533 17.32 21.68C15.7733 22.5067 13.8533 22.92 11.56 22.92H7.32V33H0.48V4.92H11.56C13.8 4.92 15.6933 5.30667 17.24 6.08C18.7867 6.85333 19.9467 7.92 20.72 9.28C21.4933 10.64 21.88 12.2 21.88 13.96ZM11.04 17.48C12.3467 17.48 13.32 17.1733 13.96 16.56C14.6 15.9467 14.92 15.08 14.92 13.96C14.92 12.84 14.6 11.9733 13.96 11.36C13.32 10.7467 12.3467 10.44 11.04 10.44H7.32V17.48H11.04ZM28.8809 8.36C27.6809 8.36 26.6943 8.01333 25.9209 7.32C25.1743 6.6 24.8009 5.72 24.8009 4.68C24.8009 3.61333 25.1743 2.73333 25.9209 2.04C26.6943 1.32 27.6809 0.959998 28.8809 0.959998C30.0543 0.959998 31.0143 1.32 31.7609 2.04C32.5343 2.73333 32.9209 3.61333 32.9209 4.68C32.9209 5.72 32.5343 6.6 31.7609 7.32C31.0143 8.01333 30.0543 8.36 28.8809 8.36ZM32.2809 10.68V33H25.4409V10.68H32.2809ZM35.8778 21.84C35.8778 19.52 36.3445 17.4933 37.2778 15.76C38.2378 14.0267 39.5578 12.6933 41.2378 11.76C42.9445 10.8267 44.8911 10.36 47.0778 10.36C49.8778 10.36 52.2111 11.0933 54.0778 12.56C55.9711 14.0267 57.2111 16.0933 57.7978 18.76H50.5178C49.9045 17.0533 48.7178 16.2 46.9578 16.2C45.7045 16.2 44.7045 16.6933 43.9578 17.68C43.2111 18.64 42.8378 20.0267 42.8378 21.84C42.8378 23.6533 43.2111 25.0533 43.9578 26.04C44.7045 27 45.7045 27.48 46.9578 27.48C48.7178 27.48 49.9045 26.6267 50.5178 24.92H57.7978C57.2111 27.5333 55.9711 29.5867 54.0778 31.08C52.1845 32.5733 49.8511 33.32 47.0778 33.32C44.8911 33.32 42.9445 32.8533 41.2378 31.92C39.5578 30.9867 38.2378 29.6533 37.2778 27.92C36.3445 26.1867 35.8778 24.16 35.8778 21.84ZM75.0966 33L68.2966 23.64V33H61.4566V3.4H68.2966V19.76L75.0566 10.68H83.4966L74.2166 21.88L83.5766 33H75.0966ZM93.0231 3.4V33H86.1831V3.4H93.0231ZM119.02 21.48C119.02 22.12 118.98 22.7867 118.9 23.48H103.42C103.527 24.8667 103.967 25.9333 104.74 26.68C105.54 27.4 106.513 27.76 107.66 27.76C109.367 27.76 110.553 27.04 111.22 25.6H118.5C118.127 27.0667 117.447 28.3867 116.46 29.56C115.5 30.7333 114.287 31.6533 112.82 32.32C111.353 32.9867 109.713 33.32 107.9 33.32C105.713 33.32 103.767 32.8533 102.06 31.92C100.353 30.9867 99.02 29.6533 98.06 27.92C97.1 26.1867 96.62 24.16 96.62 21.84C96.62 19.52 97.0867 17.4933 98.02 15.76C98.98 14.0267 100.313 12.6933 102.02 11.76C103.727 10.8267 105.687 10.36 107.9 10.36C110.06 10.36 111.98 10.8133 113.66 11.72C115.34 12.6267 116.647 13.92 117.58 15.6C118.54 17.28 119.02 19.24 119.02 21.48ZM112.02 19.68C112.02 18.5067 111.62 17.5733 110.82 16.88C110.02 16.1867 109.02 15.84 107.82 15.84C106.673 15.84 105.7 16.1733 104.9 16.84C104.127 17.5067 103.647 18.4533 103.46 19.68H112.02Z" fill="white"/>
</svg>
