<svg width="98" height="138" viewBox="0 0 98 138" fill="none" xmlns="http://www.w3.org/2000/svg">
<rect width="125.229" height="74.7335" rx="37.3667" transform="matrix(0.19041 0.981705 0.981705 -0.19041 0 14.2305)" fill="#FFCABF"/>
<circle cx="15.1487" cy="15.1487" r="15.1487" transform="matrix(-1 0 0 1 79.0322 16.832)" fill="white"/>
<circle cx="15.1487" cy="15.1487" r="15.1487" transform="matrix(-1 0 0 1 48.7354 21.5449)" fill="white"/>
<circle cx="10.0991" cy="10.0991" r="10.0991" transform="matrix(-1 0 0 1 79.0322 21.5449)" fill="black"/>
<circle cx="10.0991" cy="10.0991" r="10.0991" transform="matrix(-1 0 0 1 48.7354 26.2578)" fill="black"/>
<circle cx="5.04956" cy="5.04956" r="5.04956" transform="matrix(-1 0 0 1 77.0127 23.5645)" fill="white"/>
<circle cx="5.04956" cy="5.04956" r="5.04956" transform="matrix(-1 0 0 1 46.7158 28.2773)" fill="white"/>
</svg>
